<svg xmlns="http://www.w3.org/2000/svg" xmlns:xlink="http://www.w3.org/1999/xlink" width="124" height="53" viewBox="0 0 124 53">
  <defs>
    <style>
      .a {
        fill: #d9d9d9;
      }

      .b {
        clip-path: url(#a);
      }

      .c {
        fill: #fff;
      }
    </style>
    <clipPath id="a">
      <path class="a" d="M34,23C61,10,99,0,107,0s17,9,17,9v2l-7-1L69,21,10,48,0,53V50l3-8S13.043,33.09,34,23Z"/>
    </clipPath>
  </defs>
  <g>
    <path class="a" d="M34,23C61,10,99,0,107,0s17,9,17,9v2l-7-1L69,21,10,48,0,53V50l3-8S13.043,33.09,34,23Z"/>
    <g class="b">
      <path class="c" d="M30,14,132-16,124,9s-6.163-4.927-17-5c-9.312-.062-35.9,9.068-53,16C17.491,34.8,0,50,0,50L-18,31Z"/>
    </g>
  </g>
</svg>
