<svg xmlns="http://www.w3.org/2000/svg" xmlns:xlink="http://www.w3.org/1999/xlink" width="140" height="70" viewBox="0 0 140 70"><defs><style>.cls-1{fill:#f5f5f5;}.cls-2{clip-path:url(#clip-path);}.cls-3{fill:#fff;}</style><clipPath id="clip-path"><path class="cls-1" d="M0,70l1-8,3-8S19,38.7,50,23C88.9,3.4,115,0,123,0s16,8,16,8l1,3-4-1L76,23,14,59Z"/></clipPath></defs><g id="assets"><g id="bumper_left" data-name="bumper left"><path class="cls-1" d="M0,70l1-8,3-8S19,38.7,50,23C88.9,3.4,115,0,123,0s16,8,16,8l1,3-4-1L76,23,14,59Z"/><g class="cls-2"><path class="cls-3" d="M1,62l3-8S19,38.7,50,23C88.9,3.4,115,0,123,0s16,8,16,8S127-4.8,79,15C28,36,1,62,1,62Z"/></g></g></g></svg>