<svg xmlns="http://www.w3.org/2000/svg" xmlns:xlink="http://www.w3.org/1999/xlink" width="200" height="100" viewBox="0 0 200 100"><defs><style>.cls-1{fill:url(#radial-gradient);}.cls-2{fill:#f9b223;}.cls-3{fill:url(#New_Gradient_Swatch_copy);}.cls-4{fill:url(#radial-gradient-2);}.cls-5{fill:#1c4ac9;}.cls-6{fill:url(#New_Gradient_Swatch_copy-2);}.cls-7{fill:url(#radial-gradient-3);}.cls-8{fill:#c10000;}.cls-9{fill:url(#New_Gradient_Swatch_copy-3);}.cls-10{fill:url(#radial-gradient-4);}.cls-11{fill:#80ce2e;}.cls-12{fill:url(#New_Gradient_Swatch_copy-4);}</style><radialGradient id="radial-gradient" cx="175" cy="25" r="25" gradientUnits="userSpaceOnUse"><stop offset="0.83"/><stop offset="1" stop-color="#383838"/></radialGradient><radialGradient id="New_Gradient_Swatch_copy" cx="175" cy="75" r="25" gradientUnits="userSpaceOnUse"><stop offset="0.83" stop-color="#fff"/><stop offset="1" stop-color="#919191"/></radialGradient><radialGradient id="radial-gradient-2" cx="125" r="25" xlink:href="#radial-gradient"/><radialGradient id="New_Gradient_Swatch_copy-2" cx="125" r="25" xlink:href="#New_Gradient_Swatch_copy"/><radialGradient id="radial-gradient-3" cx="75" r="25" xlink:href="#radial-gradient"/><radialGradient id="New_Gradient_Swatch_copy-3" cx="75" r="25" xlink:href="#New_Gradient_Swatch_copy"/><radialGradient id="radial-gradient-4" cx="25" r="25" xlink:href="#radial-gradient"/><radialGradient id="New_Gradient_Swatch_copy-4" cx="25" r="25" xlink:href="#New_Gradient_Swatch_copy"/></defs><title>buttons</title><g id="assets"><g id="buttons"><g id="y"><g id="button_y" data-name="button y"><circle id="Y-2" data-name="Y" class="cls-1" cx="175" cy="25" r="25"/><path class="cls-2" d="M165.2,12.9h5.6l4.9,8.5,4.9-8.5h5l-7.8,13.3v12H173v-12Z"/></g><g id="button_y_pressed" data-name="button y pressed"><circle id="Y-3" data-name="Y" class="cls-3" cx="175" cy="75" r="25"/><path d="M165.2,62.9h5.6l4.9,8.5,4.9-8.5h5l-7.8,13.3v12H173v-12Z"/></g></g><g id="x"><g id="button_x" data-name="button x"><circle id="X-2" data-name="X" class="cls-4" cx="125" cy="25" r="25"/><path class="cls-5" d="M114.2,38.2l8.1-12.7-7.6-12.5h5.7l4.8,8,4.9-8h5.3l-7.7,12,8.1,13.3h-5.7l-5.3-8.6-5.4,8.6Z"/></g><g id="button_x_pressed" data-name="button x pressed"><circle id="X-3" data-name="X" class="cls-6" cx="125" cy="75" r="25"/><path d="M114.2,88.2l8.1-12.7-7.6-12.5h5.7l4.8,8,4.9-8h5.3l-7.7,12,8.1,13.3h-5.7l-5.3-8.6-5.4,8.6Z"/></g></g><g id="b"><g id="button_b" data-name="button b"><circle id="B-2" data-name="B" class="cls-7" cx="75" cy="25" r="25"/><path class="cls-8" d="M67.3,38.2V12.9H81.6a3.9,3.9,0,0,1,2.9,1.2,4.2,4.2,0,0,1,1.2,3v4.7a2.9,2.9,0,0,1-.6,1.8,2.8,2.8,0,0,1-1.5,1.1,3.5,3.5,0,0,1,1.8,1,2.6,2.6,0,0,1,.7,1.8V34a4.1,4.1,0,0,1-1.2,2.9A3.9,3.9,0,0,1,82,38.2ZM72,22.8h7.7a1.2,1.2,0,0,0,.9-.4,1.2,1.2,0,0,0,.4-.9V18.7a1.2,1.2,0,0,0-.4-.9,1.2,1.2,0,0,0-.9-.4H72Zm0,10.9h8a1.2,1.2,0,0,0,.9-.4,1.2,1.2,0,0,0,.4-.9V28.1a1.2,1.2,0,0,0-.4-.9,1.2,1.2,0,0,0-.9-.4H72Z"/></g><g id="button_b_pressed" data-name="button b pressed"><circle id="B-3" data-name="B" class="cls-9" cx="75" cy="75" r="25"/><path d="M67.3,88.2V62.9H81.6a3.9,3.9,0,0,1,2.9,1.2,4.2,4.2,0,0,1,1.2,3v4.7a2.9,2.9,0,0,1-.6,1.8,2.8,2.8,0,0,1-1.5,1.1,3.5,3.5,0,0,1,1.8,1,2.6,2.6,0,0,1,.7,1.8V84a4.1,4.1,0,0,1-1.2,2.9A3.9,3.9,0,0,1,82,88.2ZM72,72.8h7.7a1.2,1.2,0,0,0,.9-.4,1.2,1.2,0,0,0,.4-.9V68.7a1.2,1.2,0,0,0-.4-.9,1.2,1.2,0,0,0-.9-.4H72Zm0,10.9h8a1.2,1.2,0,0,0,.9-.4,1.2,1.2,0,0,0,.4-.9V78.1a1.2,1.2,0,0,0-.4-.9,1.2,1.2,0,0,0-.9-.4H72Z"/></g></g><g id="a"><g id="button_a" data-name="button a"><circle id="A-2" data-name="A" class="cls-10" cx="25" cy="25" r="25"/><path class="cls-11" d="M14.2,36.2l9.1-25.3h4.8l9.1,25.3H31.8l-1.7-5H20.7l-1.7,5Zm7.9-9.1h6.6l-3.3-9.5Z"/></g><g id="button_a_pressed" data-name="button a pressed"><circle id="A-3" data-name="A" class="cls-12" cx="25" cy="75" r="25"/><path d="M14.2,86.2l9.1-25.3h4.8l9.1,25.3H31.8l-1.7-5H20.7l-1.7,5Zm7.9-9.1h6.6l-3.3-9.5Z"/></g></g></g></g></svg>