<svg xmlns="http://www.w3.org/2000/svg" xmlns:xlink="http://www.w3.org/1999/xlink" width="200" height="100" viewBox="0 0 200 100">
  <defs>
    <style>
      .a {
        fill: url(#a);
      }

      .b {
        fill: #f9b223;
      }

      .c {
        fill: url(#b);
      }

      .d {
        fill: url(#c);
      }

      .e {
        fill: #1c4ac9;
      }

      .f {
        fill: url(#d);
      }

      .g {
        fill: url(#e);
      }

      .h {
        fill: #c10000;
      }

      .i {
        fill: url(#f);
      }

      .j {
        fill: url(#g);
      }

      .k {
        fill: #80ce2e;
      }

      .l {
        fill: url(#h);
      }
    </style>
    <radialGradient id="a" cx="175" cy="25" r="25" gradientUnits="userSpaceOnUse">
      <stop offset="0.827"/>
      <stop offset="1" stop-color="#383838"/>
    </radialGradient>
    <radialGradient id="b" data-name="New Gradient Swatch copy" cx="175" cy="75" r="25" gradientUnits="userSpaceOnUse">
      <stop offset="0.827" stop-color="#fff"/>
      <stop offset="1" stop-color="#919191"/>
    </radialGradient>
    <radialGradient id="c" cx="125" r="25" xlink:href="#a"/>
    <radialGradient id="d" cx="125" r="25" xlink:href="#b"/>
    <radialGradient id="e" cx="75" r="25" xlink:href="#a"/>
    <radialGradient id="f" cx="75" r="25" xlink:href="#b"/>
    <radialGradient id="g" cx="25" r="25" xlink:href="#a"/>
    <radialGradient id="h" cx="25" r="25" xlink:href="#b"/>
  </defs>
  <g>
    <g>
      <g>
        <circle class="a" cx="175" cy="25" r="25"/>
        <path class="b" d="M165.175,12.879h5.565l4.881,8.511,4.938-8.511h4.953L177.688,26.2V38.159H173V26.2Z"/>
      </g>
      <g>
        <circle class="c" cx="175" cy="75" r="25"/>
        <path d="M165.175,62.879h5.565l4.881,8.511,4.938-8.511h4.953L177.688,76.2V88.159H173V76.2Z"/>
      </g>
    </g>
    <g>
      <g>
        <circle class="d" cx="125" cy="25" r="25"/>
        <path class="e" d="M114.175,38.159l8.1-12.739-7.631-12.541h5.74l4.831,7.969,4.918-7.969H135.4l-7.718,12,8.138,13.282H130.1l-5.32-8.62-5.373,8.62Z"/>
      </g>
      <g>
        <circle class="f" cx="125" cy="75" r="25"/>
        <path d="M114.175,88.159l8.1-12.739-7.631-12.541h5.74l4.831,7.969,4.918-7.969H135.4l-7.718,12,8.138,13.282H130.1l-5.32-8.62-5.373,8.62Z"/>
      </g>
    </g>
    <g>
      <g>
        <circle class="g" cx="75" cy="25" r="25"/>
        <path class="h" d="M67.328,38.159V12.915H81.586a3.871,3.871,0,0,1,2.888,1.237,4.151,4.151,0,0,1,1.2,2.991v4.734a2.907,2.907,0,0,1-.607,1.8,2.809,2.809,0,0,1-1.527,1.057,3.471,3.471,0,0,1,1.755,1.049,2.576,2.576,0,0,1,.73,1.789v6.414a4.085,4.085,0,0,1-1.187,2.945,3.85,3.85,0,0,1-2.879,1.229Zm4.69-15.4h7.652a1.172,1.172,0,0,0,.872-.38,1.235,1.235,0,0,0,.366-.886V18.661a1.238,1.238,0,0,0-.366-.886,1.174,1.174,0,0,0-.872-.379H72.019Zm0,10.914h8.048a1.23,1.23,0,0,0,.895-.361,1.193,1.193,0,0,0,.368-.886v-4.3a1.207,1.207,0,0,0-.377-.894,1.221,1.221,0,0,0-.886-.371H72.019Z"/>
      </g>
      <g>
        <circle class="i" cx="75" cy="75" r="25"/>
        <path d="M67.328,88.159V62.915H81.586a3.871,3.871,0,0,1,2.888,1.237,4.151,4.151,0,0,1,1.2,2.991v4.734a2.907,2.907,0,0,1-.607,1.8,2.809,2.809,0,0,1-1.527,1.057,3.471,3.471,0,0,1,1.755,1.049,2.576,2.576,0,0,1,.73,1.789v6.414a4.085,4.085,0,0,1-1.187,2.945,3.85,3.85,0,0,1-2.879,1.229Zm4.69-15.4h7.652a1.172,1.172,0,0,0,.872-.38,1.235,1.235,0,0,0,.366-.886V68.661a1.238,1.238,0,0,0-.366-.886,1.174,1.174,0,0,0-.872-.379H72.019Zm0,10.914h8.048a1.23,1.23,0,0,0,.895-.361,1.193,1.193,0,0,0,.368-.886v-4.3a1.207,1.207,0,0,0-.377-.894,1.221,1.221,0,0,0-.886-.371H72.019Z"/>
      </g>
    </g>
    <g>
      <g>
        <circle class="j" cx="25" cy="25" r="25"/>
        <path class="k" d="M14.175,36.159l9.066-25.28h4.813l9.065,25.28h-5.3l-1.715-5H20.7l-1.715,5ZM22.1,27.052h6.563l-3.308-9.541Z"/>
      </g>
      <g>
        <circle class="l" cx="25" cy="75" r="25"/>
        <path d="M14.175,86.159l9.066-25.28h4.813l9.065,25.28h-5.3l-1.715-5H20.7l-1.715,5ZM22.1,77.052h6.563l-3.308-9.541Z"/>
      </g>
    </g>
  </g>
</svg>
