<svg xmlns="http://www.w3.org/2000/svg" width="748" height="695" viewBox="0 0 748 695"><defs><style>.cls-1,.cls-2{fill:red;}.cls-2{stroke:red;stroke-width:3px;}.cls-3{font-size:72.12px;font-family:Arial-BoldMT, Arial;font-weight:700;}</style></defs><g id="assets"><path class="cls-1" d="M748.3,536.2,733,657.7l-16.4,26.6-15.3,10.2-53.1,1-18.4-12.3-35.7-64.4-24.5-51.1-27.6-48-28.6-18.4-36.8-7.2L407,498H341l-69.7-3.7-36.8,7.2L206,519.8l-27.6,48-24.5,51.1-35.7,64.4L99.8,695.5l-53.1-1L31.3,684.3,15,657.7-.3,536.2l8.2-72.5,47-169.6,17.9-84.3L86,187l6-5,1-8,3-8s15-15.3,46-31c38.9-19.7,65-23,73-23s16,8,16,8l1,3,18,5,12,8H486l12-8,18-5,1-3s8-8,16-8,34.1,3.3,73,23c31,15.7,46,31,46,31l3,8,1,8,6,5,13.3,22.8,17.9,84.3,47,169.6Z"/><path class="cls-2" d="M101.9,116.6s17.1-8.9,50-14.7c35.8-6.4,60.5-8.8,60.5-8.8s-4.2-18.2-10.3-30.9c-2.6-5.4-5.6-8.3-6.9-11.1-4.3-9.4-20.5-58.6-53.5-47.9S96.4,52.8,98.1,71.8,101.9,116.6,101.9,116.6Z"/><path class="cls-2" d="M646.1,116.6s-17.1-8.9-50-14.7c-35.8-6.4-60.5-8.8-60.5-8.8s4.2-18.2,10.3-30.9c2.6-5.4,5.6-8.3,6.9-11.1,4.3-9.4,20.5-58.6,53.5-47.9s45.3,49.5,43.6,68.5S646.1,116.6,646.1,116.6Z"/><text class="cls-3" transform="translate(137.5 362)">Disconnected</text></g></svg>