<svg xmlns="http://www.w3.org/2000/svg" width="748" height="695" viewBox="0 0 748 695"><defs><style>.cls-1,.cls-2{fill:red;}.cls-2{stroke:red;stroke-width:3px;}</style></defs><title>disconnected</title><g id="assets"><path class="cls-1" d="M748.3,536.2,733,657.7l-16.4,26.6-15.3,10.2-53.1,1-18.4-12.3-35.7-64.4-24.5-51.1-27.6-48-28.6-18.4-36.8-7.2L407,498H341l-69.7-3.7-36.8,7.2L206,519.8l-27.6,48-24.5,51.1-35.7,64.4L99.8,695.5l-53.1-1L31.3,684.3,15,657.7-.3,536.2l8.2-72.5,47-169.6,17.9-84.3L86,187l6-5,1-8,3-8s15-15.3,46-31c38.9-19.7,65-23,73-23s16,8,16,8l1,3,18,5,12,8H486l12-8,18-5,1-3s8-8,16-8,34.1,3.3,73,23c31,15.7,46,31,46,31l3,8,1,8,6,5,13.3,22.8,17.9,84.3,47,169.6Z"/><path class="cls-2" d="M101.9,116.6s17.1-8.9,50-14.7c35.8-6.4,60.5-8.8,60.5-8.8s-4.2-18.2-10.3-30.9c-2.6-5.4-5.6-8.3-6.9-11.1-4.3-9.4-20.5-58.6-53.5-47.9S96.4,52.8,98.1,71.8,101.9,116.6,101.9,116.6Z"/><path class="cls-2" d="M646.1,116.6s-17.1-8.9-50-14.7c-35.8-6.4-60.5-8.8-60.5-8.8s4.2-18.2,10.3-30.9c2.6-5.4,5.6-8.3,6.9-11.1,4.3-9.4,20.5-58.6,53.5-47.9s45.3,49.5,43.6,68.5S646.1,116.6,646.1,116.6Z"/><path d="M142.8,310.4h19.1a37.2,37.2,0,0,1,9.8,1,17.3,17.3,0,0,1,7.8,4.8,22.6,22.6,0,0,1,4.9,8.4,38.1,38.1,0,0,1,1.7,12.2,33.9,33.9,0,0,1-1.6,11,22.8,22.8,0,0,1-5.5,9.1,18.3,18.3,0,0,1-7.3,4.1,31.5,31.5,0,0,1-9.2,1.1H142.8Zm10.4,8.7v34.2H161a28.4,28.4,0,0,0,6.3-.5,9.6,9.6,0,0,0,4.2-2.1,10.9,10.9,0,0,0,2.7-5,33.7,33.7,0,0,0,1.1-9.5,30.9,30.9,0,0,0-1.1-9.2,11.8,11.8,0,0,0-3-5,9.9,9.9,0,0,0-4.8-2.4,47.3,47.3,0,0,0-8.6-.5Z"/><path d="M194.8,319.6v-9.2h9.9v9.2Zm0,42.5V324.6h9.9V362Z"/><path d="M211.4,351.4l9.9-1.5a7.3,7.3,0,0,0,2.6,4.4,8.7,8.7,0,0,0,5.4,1.5,9.8,9.8,0,0,0,5.8-1.4,3.1,3.1,0,0,0,1.3-2.6,2.6,2.6,0,0,0-.7-1.9,7.9,7.9,0,0,0-3.3-1.3q-12-2.6-15.2-4.8a9.6,9.6,0,0,1-4.4-8.4,10.4,10.4,0,0,1,3.8-8.2q3.8-3.3,11.9-3.3t11.4,2.5a12.8,12.8,0,0,1,5.1,7.4l-9.3,1.7a5.8,5.8,0,0,0-2.3-3.3,8.3,8.3,0,0,0-4.8-1.2q-3.9,0-5.6,1.1a2.3,2.3,0,0,0-1.1,2,2.2,2.2,0,0,0,1,1.8q1.3,1,9.2,2.8t11,4.4a9.2,9.2,0,0,1,3.1,7.4,11.3,11.3,0,0,1-4.3,8.8q-4.3,3.7-12.7,3.7t-12.1-3.1A14.3,14.3,0,0,1,211.4,351.4Z"/><path d="M287.6,335.7l-9.8,1.8a7.1,7.1,0,0,0-2.2-4.4,6.8,6.8,0,0,0-4.5-1.5,7.4,7.4,0,0,0-5.9,2.6q-2.2,2.6-2.2,8.5t2.2,9.4a7.3,7.3,0,0,0,6,2.7,6.7,6.7,0,0,0,4.6-1.6q1.8-1.6,2.5-5.5l9.7,1.7q-1.5,6.7-5.8,10.1t-11.5,3.4q-8.2,0-13.1-5.2t-4.9-14.3q0-9.3,4.9-14.4t13.2-5.2q6.8,0,10.9,2.9A16.3,16.3,0,0,1,287.6,335.7Z"/><path d="M292.8,342.8a20.2,20.2,0,0,1,2.4-9.5,16.7,16.7,0,0,1,6.9-7,20.4,20.4,0,0,1,9.9-2.4,18.7,18.7,0,0,1,13.9,5.5,19,19,0,0,1,5.4,13.9,19.3,19.3,0,0,1-5.5,14.1,18.5,18.5,0,0,1-13.8,5.6,21.7,21.7,0,0,1-9.8-2.3,15.9,15.9,0,0,1-7.1-6.8A22.7,22.7,0,0,1,292.8,342.8Zm10.1.5q0,5.6,2.6,8.5a8.6,8.6,0,0,0,13,0q2.6-3,2.6-8.6t-2.6-8.5a8.6,8.6,0,0,0-13,0Q302.9,337.8,302.9,343.3Z"/><path d="M373.1,362h-9.9V343q0-6.1-.6-7.8a5.5,5.5,0,0,0-2.1-2.8,5.9,5.9,0,0,0-3.4-1,7.9,7.9,0,0,0-4.6,1.4,7.1,7.1,0,0,0-2.8,3.7q-.8,2.3-.8,8.6V362H339V324.6h9.2v5.5q4.9-6.3,12.3-6.3a14.8,14.8,0,0,1,6,1.2,10,10,0,0,1,4.1,3,10.9,10.9,0,0,1,1.9,4.2,30.9,30.9,0,0,1,.5,6.7Z"/><path d="M417.2,362h-9.9V343q0-6.1-.6-7.8a5.5,5.5,0,0,0-2.1-2.8,5.9,5.9,0,0,0-3.4-1,7.9,7.9,0,0,0-4.6,1.4,7.1,7.1,0,0,0-2.8,3.7q-.8,2.3-.8,8.6V362h-9.9V324.6h9.2v5.5q4.9-6.3,12.3-6.3a14.8,14.8,0,0,1,6,1.2,10,10,0,0,1,4.1,3,10.9,10.9,0,0,1,1.9,4.2,30.9,30.9,0,0,1,.5,6.7Z"/><path d="M448.9,350.1l9.9,1.7a16.2,16.2,0,0,1-6,8.3,17.6,17.6,0,0,1-10.3,2.8q-9.8,0-14.4-6.4t-3.7-12.9q0-9.3,4.9-14.6a16,16,0,0,1,12.3-5.3q8.3,0,13.2,5.5t4.6,16.9H434.5a10,10,0,0,0,2.4,6.8,7.5,7.5,0,0,0,5.7,2.4,6.1,6.1,0,0,0,3.9-1.3A7.8,7.8,0,0,0,448.9,350.1Zm.6-10q-.1-4.3-2.2-6.5a7.1,7.1,0,0,0-10.5.1,9.1,9.1,0,0,0-2.1,6.4Z"/><path d="M500,335.7l-9.8,1.8a7.1,7.1,0,0,0-2.2-4.4,6.8,6.8,0,0,0-4.5-1.5,7.4,7.4,0,0,0-5.9,2.6q-2.2,2.6-2.2,8.5t2.2,9.4a7.3,7.3,0,0,0,6,2.7,6.7,6.7,0,0,0,4.6-1.6q1.8-1.6,2.5-5.5l9.7,1.7q-1.5,6.7-5.8,10.1t-11.5,3.4q-8.2,0-13.1-5.2t-4.9-14.3q0-9.3,4.9-14.4t13.2-5.2q6.8,0,10.9,2.9A16.3,16.3,0,0,1,500,335.7Z"/><path d="M524.6,324.6v7.9h-6.8v15.1a37.3,37.3,0,0,0,.2,5.3,2.2,2.2,0,0,0,.9,1.3,2.8,2.8,0,0,0,1.7.5,12.8,12.8,0,0,0,4-1l.8,7.7a19.7,19.7,0,0,1-7.8,1.5,12.4,12.4,0,0,1-4.8-.9,7,7,0,0,1-3.2-2.3,9.2,9.2,0,0,1-1.4-3.9,48,48,0,0,1-.3-7V332.5h-4.5v-7.9h4.5v-7.4l9.9-5.8v13.2Z"/><path d="M553.1,350.1l9.9,1.7a16.2,16.2,0,0,1-6,8.3,17.6,17.6,0,0,1-10.3,2.8q-9.8,0-14.4-6.4t-3.7-12.9q0-9.3,4.9-14.6a16,16,0,0,1,12.3-5.3q8.3,0,13.2,5.5t4.6,16.9H538.7a10,10,0,0,0,2.4,6.8,7.5,7.5,0,0,0,5.7,2.4,6.1,6.1,0,0,0,3.9-1.3A7.8,7.8,0,0,0,553.1,350.1Zm.6-10q-.1-4.3-2.2-6.5a7.1,7.1,0,0,0-10.5.1,9.1,9.1,0,0,0-2.1,6.4Z"/><path d="M605.9,362h-9.2v-5.5a14.8,14.8,0,0,1-5.4,4.8,13.9,13.9,0,0,1-6.3,1.6,14.2,14.2,0,0,1-11-5.2q-4.6-5.2-4.6-14.5t4.5-14.5a14.6,14.6,0,0,1,11.3-4.9A14,14,0,0,1,596,329V310.4h9.9Zm-26.4-19.5q0,6,1.7,8.7a7.5,7.5,0,0,0,6.7,3.9,7.3,7.3,0,0,0,5.8-2.9q2.4-2.9,2.4-8.7t-2.3-9.3a7.4,7.4,0,0,0-6-2.8,7.4,7.4,0,0,0-5.9,2.8Q579.5,337,579.5,342.5Z"/></g></svg>