<svg xmlns="http://www.w3.org/2000/svg" xmlns:xlink="http://www.w3.org/1999/xlink" width="202" height="57" viewBox="0 0 202 57"><defs><style>.cls-1{fill:url(#radial-gradient);stroke:url(#New_Gradient_Swatch);}.cls-2{fill:url(#radial-gradient-2);stroke:url(#New_Gradient_Swatch-2);}.cls-3{fill:url(#radial-gradient-3);stroke:url(#New_Gradient_Swatch-3);}.cls-4{fill:url(#radial-gradient-4);stroke:url(#New_Gradient_Swatch-4);}</style><radialGradient id="radial-gradient" cx="-542" cy="-801.44" r="24.69" gradientTransform="translate(-628.3 575.7) rotate(90)" gradientUnits="userSpaceOnUse"><stop offset="0.39" stop-color="#fff"/><stop offset="1" stop-color="#d6d6d6"/></radialGradient><radialGradient id="New_Gradient_Swatch" cx="-542" cy="-801.33" r="25.34" gradientTransform="translate(-628.3 575.7) rotate(90)" gradientUnits="userSpaceOnUse"><stop offset="0.14"/><stop offset="1" stop-color="#595959"/></radialGradient><radialGradient id="radial-gradient-2" cx="-662" cy="692.56" r="24.69" gradientTransform="translate(-575.7 -628.3) rotate(-90)" xlink:href="#radial-gradient"/><radialGradient id="New_Gradient_Swatch-2" cx="-662" cy="692.67" r="25.34" gradientTransform="translate(-575.7 -628.3) rotate(-90)" xlink:href="#New_Gradient_Swatch"/><radialGradient id="radial-gradient-3" cx="-1270" cy="-81.44" r="24.69" gradientTransform="translate(-1204 -52.7) rotate(180)" xlink:href="#radial-gradient"/><radialGradient id="New_Gradient_Swatch-3" cx="-1270" cy="-81.33" r="25.34" gradientTransform="translate(-1204 -52.7) rotate(180)" xlink:href="#New_Gradient_Swatch"/><radialGradient id="radial-gradient-4" cx="22" cy="28.56" r="24.69" gradientTransform="matrix(1, 0, 0, 1, 0, 0)" xlink:href="#radial-gradient"/><radialGradient id="New_Gradient_Swatch-4" cx="22" cy="28.67" r="25.34" gradientTransform="matrix(1, 0, 0, 1, 0, 0)" xlink:href="#New_Gradient_Swatch"/></defs><g id="assets"><g id="dpad"><g id="face_right" data-name="face right"><path class="cls-1" d="M145.5,33.7l21.6-21.4c2.5,2.5,5.4,4.4,7.4,4.4h14.4c5.9,0,8.8,2.6,10.3,6.1s1.5,7.7,1.5,11,0,7.5-1.5,11-4.4,6.1-10.3,6.1H174.5c-2,0-4.9,2-7.4,4.4Z"/></g><g id="face_left" data-name="face left"><path class="cls-2" d="M144.5,33.7,122.9,55.1c-2.5-2.5-5.4-4.4-7.4-4.4H101.1c-5.9,0-8.8-2.6-10.3-6.1s-1.5-7.7-1.5-11,0-7.5,1.5-11,4.4-6.1,10.3-6.1h14.4c2,0,4.9-2,7.4-4.4Z"/></g><g id="face_down" data-name="face down"><path class="cls-3" d="M66,1.2,87.4,22.8C85,25.2,83,28.2,83,30.1V44.6c0,5.9-2.6,8.8-6.1,10.3s-7.7,1.5-11,1.5-7.5,0-11-1.5S49,50.4,49,44.6V30.1c0-2-2-4.9-4.4-7.4Z"/></g><g id="face_up" data-name="face up"><path class="cls-4" d="M22,56.1.6,34.6C3,32.1,5,29.2,5,27.2V12.8C5,6.9,7.6,3.9,11,2.5S18.7,1,22,1s7.5,0,11,1.5S39,6.9,39,12.8V27.2c0,2,2,4.9,4.4,7.4Z"/></g></g></g></svg>