<svg xmlns="http://www.w3.org/2000/svg" xmlns:xlink="http://www.w3.org/1999/xlink" width="202" height="57" viewBox="0 0 202 57">
  <defs>
    <style>
      .a {
        fill: url(#a);
        stroke: url(#b);
      }

      .b {
        fill: url(#c);
        stroke: url(#d);
      }

      .c {
        fill: url(#e);
        stroke: url(#f);
      }

      .d {
        fill: url(#g);
        stroke: url(#h);
      }
    </style>
    <radialGradient id="a" cx="-541" cy="-801.436" r="24.694" gradientTransform="translate(-628.33 575.669) rotate(90)" gradientUnits="userSpaceOnUse">
      <stop offset="0.392" stop-color="#fff"/>
      <stop offset="1" stop-color="#d6d6d6"/>
    </radialGradient>
    <linearGradient id="b" x1="-541" y1="-773.161" x2="-541" y2="-829.5" gradientTransform="translate(-628.33 575.669) rotate(90)" gradientUnits="userSpaceOnUse">
      <stop offset="0.14"/>
      <stop offset="1" stop-color="#e3e3e3"/>
    </linearGradient>
    <radialGradient id="c" cx="-663" cy="692.564" r="24.694" gradientTransform="translate(-575.669 -628.33) rotate(-90)" xlink:href="#a"/>
    <linearGradient id="d" x1="-663" y1="720.839" x2="-663" y2="664.5" gradientTransform="translate(-575.669 -628.33) rotate(-90)" xlink:href="#b"/>
    <radialGradient id="e" cx="22" cy="28.564" r="24.694" gradientTransform="matrix(1, 0, 0, 1, 0, 0)" xlink:href="#a"/>
    <linearGradient id="f" x1="22" y1="56.839" x2="22" y2="0.5" gradientTransform="matrix(1, 0, 0, 1, 0, 0)" xlink:href="#b"/>
    <radialGradient id="g" cx="-1270" cy="-81.436" r="24.694" gradientTransform="translate(-1203.999 -52.661) rotate(180)" xlink:href="#a"/>
    <linearGradient id="h" x1="-1270" y1="-53.161" x2="-1270" y2="-109.5" gradientTransform="translate(-1203.999 -52.661) rotate(180)" xlink:href="#b"/>
  </defs>
  <g>
    <path class="a" d="M145.541,34.669s17.417-17.25,21.572-21.443c2.455,2.455,5.4,4.42,7.366,4.42h14.4c5.893,0,8.839,2.619,10.312,6.057s1.473,7.693,1.473,10.967,0,7.53-1.473,10.967-4.42,6.057-10.312,6.057h-14.4c-1.964,0-4.911,1.964-7.366,4.42C164.208,53.169,145.541,34.669,145.541,34.669Z"/>
    <path class="b" d="M144.459,34.67s-17.417,17.25-21.572,21.443c-2.455-2.455-5.4-4.42-7.366-4.42h-14.4c-5.893,0-8.839-2.619-10.312-6.057s-1.473-7.693-1.473-10.967,0-7.53,1.473-10.967,4.42-6.057,10.312-6.057h14.4c1.964,0,4.911-1.964,7.366-4.42C125.793,16.17,144.459,34.67,144.459,34.67Z"/>
    <path class="c" d="M22,56.128S4.75,38.712.557,34.557c2.455-2.455,4.42-5.4,4.42-7.366v-14.4c0-5.893,2.619-8.839,6.057-10.312S18.726,1,22,1s7.53,0,10.967,1.473,6.057,4.42,6.057,10.312v14.4c0,1.964,1.964,4.911,4.42,7.366C40.5,37.462,22,56.128,22,56.128Z"/>
    <path class="d" d="M66,1.21s17.25,17.417,21.443,21.572c-2.455,2.455-4.42,5.4-4.42,7.366v14.4c0,5.893-2.619,8.839-6.057,10.312S69.275,56.339,66,56.339s-7.53,0-10.967-1.473-6.057-4.42-6.057-10.312v-14.4c0-1.964-1.964-4.911-4.42-7.366C47.5,19.877,66,1.21,66,1.21Z"/>
  </g>
</svg>
