<svg xmlns="http://www.w3.org/2000/svg" xmlns:xlink="http://www.w3.org/1999/xlink" width="216" height="36" viewBox="0 0 216 36"><defs><style>.cls-1{fill:#fff;}.cls-2{fill:#c2c2c2;}.cls-3{fill:#d9d9d9;}.cls-4{fill:#a7a7a7;}.cls-5{fill:#b2b2b2;}.cls-6{fill:#b8b8b8;}.cls-7{fill:none;stroke:#000;stroke-width:2px;}.cls-8{clip-path:url(#clip-path);}.cls-9{fill:#f5f5f5;}.cls-10{fill:#c4c4c4;}</style><clipPath id="clip-path"><polygon class="cls-1" points="139 35 139 36 77 36 77 35 83 4 84 0 132 0 133 4 139 35"/></clipPath></defs><g id="assets"><g id="arrows"><polygon class="cls-1" points="207.6 10.6 150.3 5.5 156 36 215.2 32 207.6 10.6"/><polygon class="cls-2" points="214 29 155 31 156 36 215.2 32 214 29"/><polygon class="cls-3" points="140.1 4.4 150.3 5.5 156.1 36 146.2 36 140.1 4.4"/><polygon class="cls-4" points="145 30 155 31 156.1 36 146.2 36 145 30"/><polygon class="cls-5" points="140.1 4.4 150.3 5.5 149 1 139 0 140.1 4.4"/><polygon class="cls-3" points="202 11 150 6 149 1 205.7 6.6 202 11"/><polygon class="cls-6" points="202 10 210 29 214 30 205.7 6.6 202 10"/><circle class="cls-7" cx="178" cy="19" r="7"/><g id="back"><g id="back_pressed" data-name="back pressed"><polygon class="cls-1" points="8.4 10.6 65.7 5.5 60 36 0.8 32 8.4 10.6"/><polygon class="cls-2" points="2 29 61 31 60 36 0.8 32 2 29"/><polygon class="cls-3" points="75.9 4.4 65.7 5.5 59.9 36 69.8 36 75.9 4.4"/><polygon class="cls-4" points="71 30 61 31 59.9 36 69.8 36 71 30"/><polygon class="cls-5" points="75.9 4.4 65.7 5.5 67 1 77 0 75.9 4.4"/><polygon class="cls-3" points="14 11 66 6 67 1 10.3 6.6 14 11"/><polygon class="cls-6" points="14 10 6 29 2 30 10.3 6.6 14 10"/><polygon class="cls-7" points="30.8 18.9 43 26.8 43 11 30.8 18.9"/></g></g><g id="start"><g id="start_pressed" data-name="start pressed"><g id="_Clip_Group_" data-name="&lt;Clip Group&gt;"><polygon class="cls-1" points="139 35 139 36 77 36 77 35 83 4 84 0 132 0 133 4 139 35"/><g class="cls-8"><polygon class="cls-9" points="135 4 134 -1 82 -1 81 4 135 4"/><polygon class="cls-10" points="140 36.7 138.8 31.8 77.2 31.9 76 36.7 140 36.7"/></g></g><polygon class="cls-7" points="120.2 18.9 108.1 26.8 108.1 11 120.2 18.9"/><rect x="103" y="9.4" width="2" height="19.24"/></g></g></g></g></svg>