<svg xmlns="http://www.w3.org/2000/svg" xmlns:xlink="http://www.w3.org/1999/xlink" width="216" height="36" viewBox="0 0 216 36">
  <defs>
    <style>
      .a {
        fill: #fff;
      }

      .b {
        fill: #c2c2c2;
      }

      .c {
        fill: #d9d9d9;
      }

      .d {
        fill: #a7a7a7;
      }

      .e {
        fill: #b2b2b2;
      }

      .f {
        fill: #b8b8b8;
      }

      .g {
        fill: none;
        stroke: #000;
        stroke-width: 2px;
      }

      .h {
        clip-path: url(#a);
      }

      .i {
        fill: #f5f5f5;
      }

      .j {
        fill: #c4c4c4;
      }
    </style>
    <clipPath id="a">
      <polygon class="a" points="139 35.005 139 36 77 36 77 35.005 83 4 84 0 132 0 133 4 139 35.005"/>
    </clipPath>
  </defs>
  <title>trigger</title>
  <g>
    <g>
      <g>
        <polygon class="a" points="207.58 10.641 150.308 5.487 156 36 215.22 32.049 207.58 10.641"/>
        <polygon class="b" points="214 29 155 31 156 36 215.22 32.049 214 29"/>
        <polygon class="c" points="140.051 4.397 150.308 5.487 156.118 36 146.205 36 140.051 4.397"/>
        <polygon class="d" points="145 30 155 31 156.118 36 146.205 36 145 30"/>
        <polygon class="e" points="140.051 4.397 150.308 5.487 149 1 139 0 140.051 4.397"/>
        <polygon class="c" points="202 11 150 6 149 1 205.692 6.577 202 11"/>
        <polygon class="f" points="202 10 210 29 214 30 205.692 6.577 202 10"/>
      </g>
      <circle class="g" cx="178" cy="19" r="7"/>
    </g>
    <g>
      <g>
        <polygon class="a" points="8.42 10.641 65.692 5.487 60 36 0.78 32.049 8.42 10.641"/>
        <polygon class="b" points="2 29 61 31 60 36 0.78 32.049 2 29"/>
        <polygon class="c" points="75.949 4.397 65.692 5.487 59.882 36 69.795 36 75.949 4.397"/>
        <polygon class="d" points="71 30 61 31 59.882 36 69.795 36 71 30"/>
        <polygon class="e" points="75.949 4.397 65.692 5.487 67 1 77 0 75.949 4.397"/>
        <polygon class="c" points="14 11 66 6 67 1 10.308 6.577 14 11"/>
        <polygon class="f" points="14 10 6 29 2 30 10.308 6.577 14 10"/>
      </g>
      <polygon class="g" points="30.828 18.874 43 26.781 43 10.967 30.828 18.874"/>
    </g>
    <g>
      <g>
        <polygon class="a" points="139 35.005 139 36 77 36 77 35.005 83 4 84 0 132 0 133 4 139 35.005"/>
        <g class="h">
          <polygon class="i" points="135 4 133.962 -1 82.038 -0.988 81 4 135 4"/>
          <polygon class="j" points="140 36.663 138.769 31.838 77.231 31.85 76 36.663 140 36.663"/>
        </g>
      </g>
      <g>
        <polygon class="g" points="120.245 18.874 108.073 26.781 108.073 10.967 120.245 18.874"/>
        <rect x="103" y="9.378" width="2" height="19.243"/>
      </g>
    </g>
  </g>
</svg>
