<svg xmlns="http://www.w3.org/2000/svg" width="168" height="84" viewBox="0 0 168 84"><defs><style>.cls-1{fill:#1a1a1a;}.cls-2{fill:#404040;}.cls-3{fill:#262626;}.cls-4{opacity:0.06;}.cls-5,.cls-9{fill:#fff;}.cls-6{fill:#212121;stroke:#131313;}.cls-6,.cls-9{stroke-width:5px;}.cls-7{fill:#9f9f9f;}.cls-8{fill:#dddcdc;}.cls-9{stroke:#bbb;}</style></defs><g id="assets"><g id="stick"><g id="RS"><path class="cls-1" d="M83.8,41.7A41.7,41.7,0,1,1,42.1,0,41.7,41.7,0,0,1,83.8,41.7Z"/><path class="cls-2" d="M42.1,0h-2L41,20h1.1V0Zm-4,.2h-.3L36.1.4l2.8,19.8h1L38.1.2Zm-4,.6h-.5l-1.4.3,4.7,19.4,1-.2L34.1.8Zm-3.9.9-.8.2h-.2l-.9.3,6.6,18.9,1-.3L30.2,1.7ZM26.5,3l-1.8.8L33,22l.9-.4L26.5,3ZM22.8,4.7l-1.7,1L31.2,22.9l.9-.5L22.8,4.7Zm-3.5,2L17.7,7.8,29.4,24.1l.9-.6L19.4,6.7ZM16.1,9.1l-1.5,1.3,13.2,15,.8-.7L16.1,9.1Zm-3,2.6-.8.8h-.1l-.4.5L26.3,26.8l.7-.7L13.1,11.7Zm-2.7,2.9h-.1L9.1,16.1h0L24.9,28.4l.7-.8-15.2-13ZM7.9,17.8l-.2.2h0l-.9,1.4L23.7,30.1l.6-.9L7.9,17.8ZM5.8,21.1l-.5.8h0l-.5.9,17.8,9,.5-.9L5.8,21.1ZM4,24.7l-.2.5h0l-.5,1.3,18.6,7.3.4-1L4,24.7ZM2.5,28.4l-.3.8H2.1l-.2.6,19.2,5.4.3-1-19-6.4ZM1.5,32.3l-.3,1.6v.4l19.7,3.6.2-1L1.5,32.3ZM.7,36.2v1.3h0v.6l19.9,1.7v-1L.7,36.2Zm-.3,4q0,.5,0,1h0c0,.1,0,.3,0,.4l20-.2v-.3c0-.3,0-.5,0-.8l-20-.7Zm20,2.8L.5,44.2c0,.6.1,1.1.1,1.7h0v.2l19.9-2.1V43Zm.2,2.1L.9,48.2h0l.3,1.6h0v.2l19.6-4-.2-1Zm.4,2-19.4,5L2.2,54l19.1-5.9-.3-1Zm.6,2L2.9,55.9l.7,1.9L22,50.1l-.4-1Zm.8,1.9L4.4,59.6v.2h0L5.1,61h.1l.2.3,17.6-9.5-.5-.9Zm1,1.8L6.3,63.1l.3.5h0l.7,1.1L24,53.7l-.6-.9Zm1.2,1.7L8.5,66.4l.2.3H9l.7.9L25.2,55.4l-.6-.8Zm1.3,1.6L11.1,69.5,12.4,71,26.6,56.9l-.7-.8Zm1.5,1.5L13.9,72.4l.8.7h.1l.7.6L28.2,58.4l-.8-.7ZM29,59,16.9,75l.9.7.7.5L29.8,59.6,29,59Zm1.7,1.2-10.5,17h.2l1.5.9h0l9.7-17.5-.9-.5Zm1.8,1-8.8,18,.3.2h.2l1.3.6,7.9-18.4-.9-.4Zm1.9.8-7,18.7,1.9.7,6.1-19-1-.3Zm2,.6L31.2,82h.4l1.5.4,4.3-19.5-1-.2Zm2,.4L35.1,82.8l1.5.2h.5l2.4-19.9Zm2.1.2-1.4,20h2l.5-20Zm3.2,0H42.6l.5,20h2l-1.4-20Zm2.1-.2h-1l2.4,19.9,1.8-.3h.1L45.7,63.1Zm2-.4-1,.2L51,82.4h.4l.8-.2H53L47.8,62.6Zm2-.6-1,.3,6.1,19,.9-.3H56l.8-.3L49.7,62Zm1.9-.8-.9.4L58.6,80l1-.5h.2l.6-.3-8.8-18Zm1.8-1-.9.5,9.7,17.5h.4l1.4-.8-10.5-17ZM55.2,59l-.8.6L65.6,76.1l.8-.5h.3l.6-.4L55.2,59Zm1.6-1.3-.8.7L68.8,73.7h.4l1-.9h.1L56.8,57.7Zm1.5-1.5-.7.8L71.7,71h0l.9-1h.1l.3-.4L58.2,56.2Zm1.3-1.6-.6.8L74.4,68h.2l.6-.8h.1l.4-.5L59.6,54.6Zm1.2-1.7-.6.9L76.8,64.8v-.2h0l.9-1.4h0L60.7,52.8Zm1-1.8-.5.9,17.6,9.5.3-.5.4-.8h.1l.2-.3L61.7,51Zm.8-1.9-.4,1,18.5,7.7.3-.7h0l.4-1.1L62.5,49.1Zm.6-2-.3,1L81.9,54v-.4h.1l.3-1.2-19.4-5Zm.4-2-.2,1,19.6,4,.3-1.7v-.2L63.5,45.1Zm.2-2.1c0,.3,0,.7-.1,1l19.9,2.1v-.7h0V44.2h0L63.7,43Zm20-2.8-20,.7q0,.4,0,.8V42l20,.2v-.4h0v-.4h0v-.3Zm-.3-4L63.6,38.8v1l19.9-1.7v-.5h0l-.2-1.4Zm-.7-3.9L63.2,36.8l.2,1,19.7-3.6-.2-1h-.1v-.3h0v-.2Zm-1.1-3.8-19,6.4.3,1,19.2-5.4h0l-.4-1.5h0v-.3Zm-1.5-3.7L61.9,32.9l.4,1,18.6-7.3-.8-1.8Zm-1.8-3.6L61,31l.5.9,17.8-9-.8-1.5h-.1Zm-2.1-3.4L59.8,29.2l.6.9L77.3,19.4v-.2h0l-.7-1h0l-.3-.4Zm-2.5-3.2-15.2,13,.7.8L75,16.1H73.8ZM71,11.7,57.1,26.1l.7.7L72.4,13.1h0L71,11.7ZM68,9,55.6,24.7l.8.7,13.2-15-.2-.2h0L68,9ZM64.8,6.7,53.9,23.5l.9.6L66.4,7.8,66,7.5h-.1l-.5-.4h-.1l-.5-.4Zm-3.5-2L52.1,22.4l.9.5L63.1,5.7l-.4-.2h-.1l-1.2-.7ZM57.7,3,50.2,21.6l.9.4L59.5,3.8h-.3L57.7,3ZM53.9,1.7,48.2,20.9l1,.3L55.8,2.3l-1.3-.4h-.6ZM50,.8,46.2,20.4l1,.2L52,1.2h-.2L50.9.9H50Zm-4-.6L44.2,20.1h1L48,.4h-2Zm-4-.2V20h1.1l.9-20h-2Z"/><path class="cls-3" d="M42.1,2A39.7,39.7,0,1,1,2.4,41.7,39.7,39.7,0,0,1,42.1,2m0-2A41.7,41.7,0,1,0,83.8,41.7,41.7,41.7,0,0,0,42.1,0Z"/><g class="cls-4"><path class="cls-5" d="M78.1,41.7a36,36,0,1,1-36-36A36,36,0,0,1,78.1,41.7Z"/></g><path class="cls-6" d="M42.1,74.4A32.7,32.7,0,1,1,74.8,41.7,32.7,32.7,0,0,1,42.1,74.4Z"/></g><g id="RS-2" data-name="RS"><path class="cls-7" d="M167.8,41.7A41.7,41.7,0,1,1,126.1,0,41.7,41.7,0,0,1,167.8,41.7Z"/><path class="cls-5" d="M126.1,0h-2l.9,20h1.1V0Zm-4,.2h-.3l-1.7.2,2.8,19.8h1L122.1.2Zm-4,.6h-.5l-1.4.3,4.7,19.4,1-.2L118.1.8Zm-3.9.9-.8.2h-.2l-.9.3,6.6,18.9,1-.3L114.2,1.7ZM110.5,3l-1.8.8L117,22l.9-.4L110.5,3Zm-3.6,1.7-1.7,1,10.1,17.3.9-.5L106.8,4.7Zm-3.5,2-1.7,1.1,11.7,16.2.9-.6L103.4,6.7Zm-3.2,2.3-1.5,1.3,13.2,15,.8-.7L100.1,9.1Zm-3,2.6-.8.8h-.1l-.4.5,14.6,13.7.7-.7L97.1,11.7Zm-2.7,2.9h-.1l-1.1,1.4h0l15.8,12.3.7-.8-15.2-13Zm-2.5,3.2-.2.2h0l-.9,1.4,16.9,10.7.6-.9L91.9,17.8Zm-2.1,3.4-.5.8h0l-.5.9,17.8,9,.5-.9L89.8,21.1ZM88,24.7l-.2.5h0l-.5,1.3,18.6,7.3.4-1L88,24.7Zm-1.5,3.7-.3.8h-.2l-.2.6,19.2,5.4.3-1-19-6.4Zm-1.1,3.8-.3,1.6v.4l19.7,3.6.2-1L85.5,32.3Zm-.7,3.9v1.3h0v.6l19.9,1.7v-1L84.7,36.2Zm-.3,4q0,.5,0,1h0c0,.1,0,.3,0,.4l20-.2v-.3c0-.3,0-.5,0-.8l-20-.7Zm20,2.8-20,1.2c0,.6.1,1.1.1,1.7h0v.2l19.9-2.1V43Zm.2,2.1L84.9,48.2h0l.3,1.6h0v.2l19.6-4-.2-1Zm.4,2-19.4,5,.5,1.9,19.1-5.9-.3-1Zm.6,2L86.9,55.9l.7,1.9L106,50.1l-.4-1Zm.8,1.9L88.4,59.6v.2h0l.6,1.1h.1l.2.3,17.6-9.5-.5-.9Zm1,1.8L90.3,63.1l.3.5h0l.7,1.1L108,53.7l-.6-.9Zm1.2,1.7L92.5,66.4l.2.3H93l.7.9,15.5-12.6-.6-.8Zm1.3,1.6L95.1,69.5,96.4,71l14.2-14.1-.7-.8Zm1.5,1.5L97.9,72.4l.8.7h.1l.7.6,12.8-15.4-.8-.7ZM113,59,100.9,75l.9.7.7.5,11.3-16.5L113,59Zm1.7,1.2-10.5,17h.2l1.5.9h0l9.7-17.5-.9-.5Zm1.8,1-8.8,18,.3.2h.2l1.3.6,7.9-18.4-.9-.4Zm1.9.8-7,18.7,1.9.7,6.1-19-1-.3Zm2,.6L115.2,82h.4l1.5.4,4.3-19.5-1-.2Zm2,.4-3.3,19.7,1.5.2h.5l2.4-19.9Zm2.1.2-1.4,20h2l.5-20Zm3.2,0h-1.1l.5,20h2l-1.4-20Zm2.1-.2h-1l2.4,19.9,1.8-.3h.1l-3.3-19.7Zm2-.4-1,.2L135,82.4h.4l.8-.2h.8l-5.2-19.3Zm2-.6-1,.3,6.1,19,.9-.3h.2l.8-.3-7-18.7Zm1.9-.8-.9.4L142.6,80l1-.5h.2l.6-.3-8.8-18Zm1.8-1-.9.5,9.7,17.5h.4l1.4-.8-10.5-17Zm1.7-1.2-.8.6,11.3,16.5.8-.5h.3l.6-.4L139.2,59Zm1.6-1.3-.8.7,12.8,15.3h.4l1-.9h.1L140.8,57.7Zm1.5-1.5-.7.8L155.7,71h0l.9-1h.1l.3-.4L142.2,56.2Zm1.3-1.6-.6.8L158.4,68h.2l.6-.8h.1l.4-.5L143.6,54.6Zm1.2-1.7-.6.9,16.6,11.1v-.2h0l.9-1.4h0L144.7,52.8Zm1-1.8-.5.9,17.6,9.5.3-.5.4-.8h.1l.2-.3L145.7,51Zm.8-1.9-.4,1,18.5,7.7.3-.7h0l.4-1.1-18.8-6.8Zm.6-2-.3,1L165.9,54v-.4h.1l.3-1.2-19.4-5Zm.4-2-.2,1,19.6,4,.3-1.7v-.2l-19.8-3.1Zm.2-2.1c0,.3,0,.7-.1,1l19.9,2.1v-.7h0V44.2h0l-20-1.2Zm20-2.8-20,.7q0,.4,0,.8V42l20,.2v-.4h0v-.4h0v-.3Zm-.3-4-19.8,2.6v1l19.9-1.7v-.5h0l-.2-1.4Zm-.7-3.9-19.5,4.5.2,1,19.7-3.6-.2-1h-.1v-.3h0v-.2Zm-1.1-3.8-19,6.4.3,1,19.2-5.4h0l-.4-1.5h0v-.3Zm-1.5-3.7-18.3,8.2.4,1,18.6-7.3-.8-1.8Zm-1.8-3.6L145,31l.5.9,17.8-9-.8-1.5h-.1Zm-2.1-3.4L143.8,29.2l.6.9,16.9-10.7v-.2h0l-.7-1h0l-.3-.4Zm-2.5-3.2-15.2,13,.7.8L159,16.1h-1.3ZM155,11.7,141.1,26.1l.7.7,14.6-13.7h0L155,11.7ZM152,9,139.6,24.7l.8.7,13.2-15-.2-.2h0L152,9Zm-3.2-2.3L137.9,23.5l.9.6L150.4,7.8l-.5-.3h-.1l-.5-.4h-.1l-.5-.4Zm-3.5-2-9.2,17.7.9.5L147.1,5.7l-.4-.2h-.1l-1.2-.7ZM141.7,3l-7.5,18.5.9.4,8.4-18.2h-.3L141.7,3Zm-3.8-1.3-5.7,19.2,1,.3,6.6-18.9-1.3-.4h-.6ZM134,.8l-3.8,19.6,1,.2L136,1.2h-.2l-.8-.2H134Zm-4-.6-1.9,19.9h1L132,.4h-2Zm-4-.2V20h1.1l.9-20h-2Z"/><path class="cls-3" d="M126.1,2A39.7,39.7,0,1,1,86.4,41.7,39.7,39.7,0,0,1,126.1,2m0-2a41.7,41.7,0,1,0,41.7,41.7A41.7,41.7,0,0,0,126.1,0Z"/><path class="cls-8" d="M126.1,2A39.7,39.7,0,1,1,86.4,41.7,39.7,39.7,0,0,1,126.1,2m0-2a41.7,41.7,0,1,0,41.7,41.7A41.7,41.7,0,0,0,126.1,0Z"/><g class="cls-4"><path class="cls-5" d="M162.1,41.7a36,36,0,1,1-36-36A36,36,0,0,1,162.1,41.7Z"/></g><path class="cls-9" d="M126.1,74.4a32.7,32.7,0,1,1,32.7-32.7A32.7,32.7,0,0,1,126.1,74.4Z"/></g></g></g></svg>