<svg xmlns="http://www.w3.org/2000/svg" xmlns:xlink="http://www.w3.org/1999/xlink" width="118" height="119" viewBox="0 0 118 119">
  <defs>
    <style>
      .a, .b {
        fill: #d9d9d9;
      }

      .a, .f {
        stroke-width: 3px;
        stroke: url(#a);
      }

      .c {
        clip-path: url(#b);
      }

      .d {
        fill: #f0f0f0;
      }

      .e {
        fill: #fff;
      }

      .f {
        fill: none;
      }
    </style>
    <linearGradient id="a" data-name="New Gradient Swatch copy 2" x1="61.844" y1="108.906" x2="42.98" y2="1.921" gradientUnits="userSpaceOnUse">
      <stop offset="0.355" stop-color="#dcdcdc"/>
      <stop offset="1" stop-color="#fff"/>
    </linearGradient>
    <clipPath id="b">
      <path class="a" d="M5.942,116.622S23,107.767,55.951,101.9c35.762-6.364,60.5-8.77,60.5-8.77s-4.186-18.249-10.334-30.865C103.5,56.895,100.477,53.99,99.2,51.2,94.934,41.843,78.668-7.4,45.7,3.286S.362,52.824,2.122,71.831,5.942,116.622,5.942,116.622Z"/>
    </clipPath>
  </defs>
  <g>
    <path class="b" d="M5.942,116.622S23,107.767,55.951,101.9c35.762-6.364,60.5-8.77,60.5-8.77s-4.186-18.249-10.334-30.865C103.5,56.895,100.477,53.99,99.2,51.2,94.934,41.843,78.668-7.4,45.7,3.286S.362,52.824,2.122,71.831,5.942,116.622,5.942,116.622Z"/>
    <g class="c">
      <path class="d" d="M5.942,116.622s17.384-9.4,50.339-15.26c35.762-6.364,60.168-8.229,60.168-8.229s-4.186-18.249-10.334-30.865C103.5,56.895,100.477,53.99,99.2,51.2,94.934,41.843.362,52.824,2.122,71.831S5.942,116.622,5.942,116.622Z"/>
      <path class="e" d="M106.115,62.267C103.5,56.895,100.477,53.99,99.2,51.2c-1.306-2.861-4.07-9.573-8.119-17.17C58.441,31.854,32.142,38.369-.394,48.449c-3.5,9.262,1.9,16.76,2.516,23.382C33.317,62.753,76.709,50.463,106.115,62.267Z"/>
    </g>
    <path class="f" d="M5.942,116.622S23,107.767,55.951,101.9c35.762-6.364,60.5-8.77,60.5-8.77s-4.186-18.249-10.334-30.865C103.5,56.895,100.477,53.99,99.2,51.2,94.934,41.843,78.668-7.4,45.7,3.286S.362,52.824,2.122,71.831,5.942,116.622,5.942,116.622Z"/>
  </g>
</svg>
