<svg xmlns="http://www.w3.org/2000/svg" xmlns:xlink="http://www.w3.org/1999/xlink" width="118" height="119" viewBox="0 0 118 119"><defs><style>.cls-1,.cls-2{fill:#d9d9d9;}.cls-1,.cls-6{stroke-width:3px;stroke:url(#New_Gradient_Swatch_copy_2);}.cls-3{clip-path:url(#clip-path);}.cls-4{fill:#f0f0f0;}.cls-5{fill:#fff;}.cls-6{fill:none;}</style><linearGradient id="New_Gradient_Swatch_copy_2" x1="61.84" y1="108.91" x2="42.98" y2="1.92" gradientUnits="userSpaceOnUse"><stop offset="0.36" stop-color="#dcdcdc"/><stop offset="1" stop-color="#fff"/></linearGradient><clipPath id="clip-path"><path class="cls-1" d="M5.9,116.6s17.1-8.9,50-14.7c35.8-6.4,60.5-8.8,60.5-8.8s-4.2-18.2-10.3-30.9c-2.6-5.4-5.6-8.3-6.9-11.1C94.9,41.8,78.7-7.4,45.7,3.3S.4,52.8,2.1,71.8,5.9,116.6,5.9,116.6Z"/></clipPath></defs><g id="assets"><g id="trigger_left_pressed" data-name="trigger left pressed"><path class="cls-2" d="M5.9,116.6s17.1-8.9,50-14.7c35.8-6.4,60.5-8.8,60.5-8.8s-4.2-18.2-10.3-30.9c-2.6-5.4-5.6-8.3-6.9-11.1C94.9,41.8,78.7-7.4,45.7,3.3S.4,52.8,2.1,71.8,5.9,116.6,5.9,116.6Z"/><g class="cls-3"><path class="cls-4" d="M5.9,116.6s17.4-9.4,50.3-15.3c35.8-6.4,60.2-8.2,60.2-8.2s-4.2-18.2-10.3-30.9c-2.6-5.4-5.6-8.3-6.9-11.1C94.9,41.8.4,52.8,2.1,71.8S5.9,116.6,5.9,116.6Z"/><path class="cls-5" d="M106.1,62.3c-2.6-5.4-5.6-8.3-6.9-11.1S95.1,41.6,91.1,34C58.4,31.9,32.1,38.4-.4,48.4c-3.5,9.3,1.9,16.8,2.5,23.4C33.3,62.8,76.7,50.5,106.1,62.3Z"/></g><path class="cls-6" d="M5.9,116.6s17.1-8.9,50-14.7c35.8-6.4,60.5-8.8,60.5-8.8s-4.2-18.2-10.3-30.9c-2.6-5.4-5.6-8.3-6.9-11.1C94.9,41.8,78.7-7.4,45.7,3.3S.4,52.8,2.1,71.8,5.9,116.6,5.9,116.6Z"/></g></g></svg>